<svg xmlns="http://www.w3.org/2000/svg" xmlns:xlink="http://www.w3.org/1999/xlink" width="1024" zoomAndPan="magnify" viewBox="0 0 768 767.999994" height="1024" preserveAspectRatio="xMidYMid meet" version="1.0"><defs><g/><clipPath id="26a7634525"><path d="M 0.800781 1.402344 L 352 1.402344 L 352 304.554688 L 0.800781 304.554688 Z M 0.800781 1.402344 " clip-rule="nonzero"/></clipPath><clipPath id="0981d06f3c"><path d="M 148 132 L 219 132 L 219 160 L 148 160 Z M 148 132 " clip-rule="nonzero"/></clipPath><clipPath id="d2244520dd"><path d="M 220.988281 22.808594 L 307.425781 109.246094 L 132.820312 283.847656 L 46.386719 197.414062 Z M 220.988281 22.808594 " clip-rule="nonzero"/></clipPath><clipPath id="a8dc513788"><path d="M 220.988281 22.808594 L 307.425781 109.246094 L 132.820312 283.847656 L 46.386719 197.414062 Z M 220.988281 22.808594 " clip-rule="nonzero"/></clipPath><clipPath id="018d9f4637"><path d="M 95 186 L 166 186 L 166 213 L 95 213 Z M 95 186 " clip-rule="nonzero"/></clipPath><clipPath id="98bafaeead"><path d="M 220.988281 22.808594 L 307.425781 109.246094 L 132.820312 283.847656 L 46.386719 197.414062 Z M 220.988281 22.808594 " clip-rule="nonzero"/></clipPath><clipPath id="a891016a02"><path d="M 220.988281 22.808594 L 307.425781 109.246094 L 132.820312 283.847656 L 46.386719 197.414062 Z M 220.988281 22.808594 " clip-rule="nonzero"/></clipPath><clipPath id="b857c04fed"><path d="M 88 212 L 139 212 L 139 241 L 88 241 Z M 88 212 " clip-rule="nonzero"/></clipPath><clipPath id="58d65e4ec5"><path d="M 220.988281 22.808594 L 307.425781 109.246094 L 132.820312 283.847656 L 46.386719 197.414062 Z M 220.988281 22.808594 " clip-rule="nonzero"/></clipPath><clipPath id="772086e2c4"><path d="M 220.988281 22.808594 L 307.425781 109.246094 L 132.820312 283.847656 L 46.386719 197.414062 Z M 220.988281 22.808594 " clip-rule="nonzero"/></clipPath><clipPath id="4db5f96406"><path d="M 121 159 L 192 159 L 192 186 L 121 186 Z M 121 159 " clip-rule="nonzero"/></clipPath><clipPath id="1f1521c993"><path d="M 220.988281 22.808594 L 307.425781 109.246094 L 132.820312 283.847656 L 46.386719 197.414062 Z M 220.988281 22.808594 " clip-rule="nonzero"/></clipPath><clipPath id="c0c50db7a2"><path d="M 220.988281 22.808594 L 307.425781 109.246094 L 132.820312 283.847656 L 46.386719 197.414062 Z M 220.988281 22.808594 " clip-rule="nonzero"/></clipPath><clipPath id="f66c9306b6"><path d="M 174 22 L 307 22 L 307 133 L 174 133 Z M 174 22 " clip-rule="nonzero"/></clipPath><clipPath id="421632020d"><path d="M 220.988281 22.808594 L 307.425781 109.246094 L 132.820312 283.847656 L 46.386719 197.414062 Z M 220.988281 22.808594 " clip-rule="nonzero"/></clipPath><clipPath id="782c12b14a"><path d="M 220.988281 22.808594 L 307.425781 109.246094 L 132.820312 283.847656 L 46.386719 197.414062 Z M 220.988281 22.808594 " clip-rule="nonzero"/></clipPath><clipPath id="c69242372b"><rect x="0" width="223" y="0" height="291"/></clipPath><clipPath id="2418f28ca9"><rect x="0" width="692" y="0" height="306"/></clipPath></defs><g transform="matrix(1, 0, 0, 1, 76, 219)"><g clip-path="url(#2418f28ca9)"><g clip-path="url(#26a7634525)"><path fill="#fd1202" d="M 351.628906 153.367188 L 263.921875 305.28125 L 88.507812 305.28125 L 0.800781 153.367188 L 88.507812 1.453125 L 263.921875 1.453125 Z M 351.628906 153.367188 " fill-opacity="1" fill-rule="nonzero"/></g><g clip-path="url(#0981d06f3c)"><g clip-path="url(#d2244520dd)"><g clip-path="url(#a8dc513788)"><path fill="#ffffff" d="M 218.527344 140.644531 L 167.050781 132.902344 L 148.300781 151.652344 L 199.777344 159.394531 Z M 218.527344 140.644531 " fill-opacity="1" fill-rule="nonzero"/></g></g></g><g clip-path="url(#018d9f4637)"><g clip-path="url(#98bafaeead)"><g clip-path="url(#a891016a02)"><path fill="#ffffff" d="M 165.347656 193.824219 L 113.871094 186.082031 L 95.132812 204.820312 L 146.636719 212.535156 Z M 165.347656 193.824219 " fill-opacity="1" fill-rule="nonzero"/></g></g></g><g clip-path="url(#b857c04fed)"><g clip-path="url(#58d65e4ec5)"><g clip-path="url(#772086e2c4)"><path fill="#ffffff" d="M 118.21875 240.953125 L 138.792969 220.378906 L 88.609375 212.863281 L 88.609375 240.953125 Z M 118.21875 240.953125 " fill-opacity="1" fill-rule="nonzero"/></g></g></g><g clip-path="url(#4db5f96406)"><g clip-path="url(#1f1521c993)"><g clip-path="url(#c0c50db7a2)"><path fill="#ffffff" d="M 191.941406 167.230469 L 140.460938 159.492188 L 121.710938 178.242188 L 173.1875 185.984375 Z M 191.941406 167.230469 " fill-opacity="1" fill-rule="nonzero"/></g></g></g><g clip-path="url(#f66c9306b6)"><g clip-path="url(#421632020d)"><g clip-path="url(#782c12b14a)"><path fill="#ffffff" d="M 238.5 120.671875 C 238.617188 120.554688 238.769531 120.511719 238.890625 120.414062 C 239.128906 120.222656 239.371094 120.054688 239.644531 119.914062 C 239.914062 119.773438 240.1875 119.671875 240.476562 119.597656 C 240.632812 119.554688 240.761719 119.453125 240.925781 119.425781 L 306.691406 108.515625 L 267.019531 68.84375 L 251.605469 84.257812 C 249.867188 86 247.039062 86 245.300781 84.257812 C 243.558594 82.519531 243.558594 79.691406 245.300781 77.953125 L 260.714844 62.539062 L 221.042969 22.867188 L 210.132812 88.636719 C 210.105469 88.792969 210.011719 88.914062 209.972656 89.0625 C 209.890625 89.363281 209.789062 89.648438 209.640625 89.925781 C 209.503906 90.1875 209.34375 90.417969 209.164062 90.644531 C 209.058594 90.773438 209.011719 90.933594 208.890625 91.054688 L 174.890625 125.054688 L 226.371094 132.800781 L 238.507812 120.664062 Z M 238.5 120.671875 " fill-opacity="1" fill-rule="nonzero"/></g></g></g><path stroke-linecap="round" transform="matrix(0, -2.444801, 2.444801, 0, 387.029561, 301.135835)" fill="none" stroke-linejoin="miter" d="M 2.500161 2.499616 L 120.107807 2.499616 " stroke="#ffffff" stroke-width="5" stroke-opacity="1" stroke-miterlimit="4"/><g transform="matrix(1, 0, 0, 1, 469, 6)"><g clip-path="url(#c69242372b)"><g fill="#fd1202" fill-opacity="1"><g transform="translate(0.305054, 121.253801)"><g><path d="M 75.28125 -97.359375 C 80.1875 -97.359375 84.691406 -96.34375 88.796875 -94.3125 C 92.898438 -92.28125 96.148438 -89.425781 98.546875 -85.75 C 100.953125 -82.070312 102.15625 -77.96875 102.15625 -73.4375 C 102.15625 -61.457031 96.734375 -53.910156 85.890625 -50.796875 L 85.890625 -50.234375 C 98.242188 -47.398438 104.421875 -39.285156 104.421875 -25.890625 C 104.421875 -20.796875 103.171875 -16.289062 100.671875 -12.375 C 98.171875 -8.46875 94.75 -5.425781 90.40625 -3.25 C 86.070312 -1.082031 81.3125 0 76.125 0 L 10.46875 0 L 10.46875 -97.359375 Z M 41.75 -59.4375 L 63.25 -59.4375 C 65.320312 -59.4375 67.039062 -60.164062 68.40625 -61.625 C 69.78125 -63.082031 70.46875 -64.898438 70.46875 -67.078125 L 70.46875 -68.484375 C 70.46875 -70.554688 69.757812 -72.320312 68.34375 -73.78125 C 66.925781 -75.25 65.226562 -75.984375 63.25 -75.984375 L 41.75 -75.984375 Z M 41.75 -22.640625 L 65.515625 -22.640625 C 67.585938 -22.640625 69.304688 -23.367188 70.671875 -24.828125 C 72.046875 -26.296875 72.734375 -28.113281 72.734375 -30.28125 L 72.734375 -31.703125 C 72.734375 -33.867188 72.046875 -35.679688 70.671875 -37.140625 C 69.304688 -38.609375 67.585938 -39.34375 65.515625 -39.34375 L 41.75 -39.34375 Z M 41.75 -22.640625 "/></g></g></g><g fill="#fd1202" fill-opacity="1"><g transform="translate(0.305054, 258.278063)"><g><path d="M 75.625 0 L 71.53125 -13.71875 L 37.453125 -13.71875 L 33.359375 0 L 1.40625 0 L 36.890625 -97.25 L 73.21875 -97.25 L 108.703125 0 Z M 43.96875 -35.484375 L 65.03125 -35.484375 L 54.84375 -70.109375 L 54.28125 -70.109375 Z M 43.96875 -35.484375 "/></g></g></g></g></g></g></g></svg>